<?xml version="1.0" encoding="utf-8"?>
<!-- Generator: Adobe Illustrator 22.0.1, SVG Export Plug-In . SVG Version: 6.00 Build 0)  -->
<svg version="1.1"
	 id="svg3049" inkscape:version="0.48.4 r9939" sodipodi:docname="Р»РїРј 2.svg" xmlns:cc="http://creativecommons.org/ns#" xmlns:dc="http://purl.org/dc/elements/1.1/" xmlns:inkscape="http://www.inkscape.org/namespaces/inkscape" xmlns:rdf="http://www.w3.org/1999/02/22-rdf-syntax-ns#" xmlns:sodipodi="http://sodipodi.sourceforge.net/DTD/sodipodi-0.dtd" xmlns:svg="http://www.w3.org/2000/svg"
	 xmlns="http://www.w3.org/2000/svg" xmlns:xlink="http://www.w3.org/1999/xlink" x="0px" y="0px" viewBox="0 0 1920 1080"
	 style="enable-background:new 0 0 1920 1080;" xml:space="preserve">
<style type="text/css">
	.st0{fill:#F8DDCC;}
	.st1{fill:none;stroke:#000000;stroke-width:5;}
	.st2{fill:none;stroke:#000000;stroke-width:4.9311;}
	.st3{fill:#9833FF;}
	.st4{fill:#9833FF;stroke:#9833FF;}
	.st5{fill:none;stroke:#9833FF;stroke-width:14.3284;stroke-linecap:round;stroke-miterlimit:1;}
	.st6{fill:none;stroke:#9833FF;stroke-width:4.2455;stroke-linecap:round;}
	.st7{fill:none;stroke:#9833FF;stroke-width:4.7761;stroke-linecap:round;}
	.st8{fill:#9833FF;stroke:#9833FF;stroke-linecap:round;}
	.st9{fill:none;stroke:#000000;}
	.st10{fill:#F8DDCC;fill-opacity:0;stroke:#000000;stroke-width:9;}
</style>
<rect x="1077.1" y="471.2" transform="matrix(0.7608 0.6489 -0.6489 0.7608 586.794 -589.2779)" class="st0" width="31.5" height="60.6"/>
<rect x="1072" y="448.5" class="st0" width="62.5" height="39.5"/>
<rect x="812" y="461" class="st0" width="273" height="76.4"/>
<rect x="795.6" y="391.6" class="st0" width="341.2" height="69.4"/>
<g id="Слой_2_1_">
	<path id="path9290" inkscape:connector-curvature="0" class="st1" d="M866.7,463.4h-18.4"/>
	<path id="path9292" inkscape:connector-curvature="0" class="st1" d="M910,538.7V465"/>
	<line id="line3152" class="st2" x1="912.5" y1="463" x2="896.9" y2="463"/>
	<g id="path9342-9" transform="translate(0,-4)">
		<rect id="rect3155" x="834.2" y="474.6" class="st0" width="58" height="57"/>
		<path id="path3157" inkscape:connector-curvature="0" sodipodi:nodetypes="ccccccccccccccccccc" class="st3" d="M888.2,476.6
			c-18.7,0.3-37.2,0.4-56,0.1l2.1-2.1v57l-2.1-2.1h58l-2.1,2.1C887.8,513.1,887.9,494.9,888.2,476.6L888.2,476.6z M892.2,472.6
			c0.3,19.6,0.4,39.5,0.1,59v2.1h-2.1h-58h-2.1v-2.1v-57v-2.1h2.1C852,472.2,872.2,472.2,892.2,472.6L892.2,472.6z"/>
	</g>
	<path id="path9344-7" inkscape:connector-curvature="0" sodipodi:nodetypes="ssccss" class="st4" d="M856.8,482.7
		c0,2.6-2.6,5.3-5.3,5.3s-5.3-2.6-5.3-5.3l0,0c0-2.6,2.6-5.3,5.3-5.3S856.8,479.2,856.8,482.7z"/>
	<path id="path9351-5" inkscape:connector-curvature="0" sodipodi:nodetypes="cc" class="st5" d="M851.8,494.4v4.8"/>
	<path id="path10019-3" inkscape:connector-curvature="0" class="st6" d="M845.3,492c-4.4,4.8-4.8,8.3-3.1,11.4"/>
	<path id="path10019-2-4" inkscape:connector-curvature="0" sodipodi:nodetypes="cc" class="st6" d="M867.6,480.6
		c-1.3,4.4-2.6,11.8-9.2,11.4"/>
	<path id="path10039-32" inkscape:connector-curvature="0" sodipodi:nodetypes="cc" class="st7" d="M849.2,505.1l-3.9,16.2"/>
	<path id="path10039-3-1" inkscape:connector-curvature="0" sodipodi:nodetypes="cc" class="st7" d="M854.5,504.3
		c0.4,1.8,0.9-0.4,3.5,16.6"/>
	<polygon id="polygon3165" class="st8" points="879.7,503.6 873.9,515.1 868.1,503.6 	"/>
	<polygon id="polygon3167" class="st8" points="867.6,497.4 873.9,484.7 880.2,497.4 	"/>
	<path id="path4009" class="st9" d="M967,395.1v137.1v6.1"/>
	<path id="path4013" class="st9" d="M967,491h91.5"/>
	<path id="path4015" class="st9" d="M967,484h91.5"/>
	<path id="path4017" inkscape:connector-curvature="0" sodipodi:nodetypes="ccc" class="st9" d="M1058.9,442.5l-5.2,0l-86.6-0.1"/>
	<path id="path4019" class="st9" d="M967,436.3h91.5"/>
	<path id="path4035" class="st9" d="M974.9,392.5v44.2"/>
	<path id="path4037" class="st9" d="M983.7,395.5v40.7"/>
	<path id="path4039" class="st9" d="M992,436.3v-44.2"/>
	<path id="path4041" class="st9" d="M1000.7,393.3v43.4"/>
	<path id="path4043" class="st9" d="M1008.6,391.6v45.1"/>
	<path id="path4045" class="st9" d="M1016.5,436.3v-43.8"/>
	<path id="path4047" class="st9" d="M1025.7,394.7v41.6"/>
	<path id="path4049" class="st9" d="M1033.6,436.3v-44.7"/>
	<path id="path4051" class="st9" d="M1041.5,394.7v41.6"/>
	<path id="path4053" class="st9" d="M1048.9,436.3v-43.4"/>
	<path id="path4055" class="st9" d="M1048.9,442.4V484"/>
	<path id="path4057" class="st9" d="M1041.5,484v-41.6"/>
	<path id="path4059" class="st9" d="M1033.6,442.4V484"/>
	<path id="path4061" class="st9" d="M1025.7,484v-41.6"/>
	<path id="path4063" class="st9" d="M1016.5,442.4V484"/>
	<path id="path4065" class="st9" d="M1008.6,484v-41.6"/>
	<path id="path4067" class="st9" d="M1000.7,442.4V484"/>
	<path id="path4069" class="st9" d="M992,484v-41.6"/>
	<path id="path4071" class="st9" d="M983.7,442.4V484"/>
	<path id="path4073" class="st9" d="M974.9,442.4V484"/>
	<path id="path4075" class="st9" d="M974.9,491v46.4"/>
	<path id="path4077" class="st9" d="M983.7,539.2V491"/>
	<path id="path4079" class="st9" d="M992,491v46.4"/>
	<path id="path4081" class="st9" d="M1000.7,538.3V491"/>
	<path id="path4083" class="st9" d="M1008.6,491v47.7"/>
	<path id="path4085" class="st9" d="M1016.5,540.5V491"/>
	<path id="path4087" class="st9" d="M1025.7,491v46.4"/>
	<path id="path4089" class="st9" d="M1033.6,539.2V491"/>
	<path id="path4091" class="st9" d="M1041.5,491v48.6"/>
	<path id="path4093" class="st9" d="M1048.9,538.3V491"/>
</g>
<path id="path3127" inkscape:connector-curvature="0" sodipodi:nodetypes="ccccccccc" class="st10" d="M811.7,538.3H1080l14.6-14.5
	l42.2-41.8v-89H795.6v71.2h16.1V538.3z"/>
<path id="path3897" inkscape:connector-curvature="0" class="st9" d="M1058.7,392.9v145.3"/>
</svg>
