<?xml version="1.0" encoding="utf-8"?>
<!-- Generator: Adobe Illustrator 22.1.0, SVG Export Plug-In . SVG Version: 6.00 Build 0)  -->
<svg version="1.1" id="l1" xmlns="http://www.w3.org/2000/svg" xmlns:xlink="http://www.w3.org/1999/xlink" x="0px" y="0px"
	 viewBox="0 0 7589.3 6749.3" style="enable-background:new 0 0 7589.3 6749.3;" xml:space="preserve">
<style type="text/css">
	.st0{fill:#F8DDCC;}
	.st1{fill:none;}
	.st2{fill:#F8DDCC;stroke:#000000;stroke-width:9;}
	.st3{fill:none;stroke:#000000;stroke-width:5;}
	.st4{fill:none;stroke:#000000;}
	.st5{fill:none;stroke:#000000;stroke-width:0.9811;}
	.st6{fill:none;stroke:#000000;stroke-width:1.0218;}
	.st7{fill:#F8DDCC;fill-opacity:0;stroke:#000000;stroke-width:9;}
	.st8{opacity:0.33;fill:#FFDBCA;}
	.st9{fill:#B115FF;}
	.st10{fill:none;stroke:#B115FF;stroke-width:14.3284;stroke-linecap:round;stroke-miterlimit:1;}
	.st11{fill:none;stroke:#B115FF;stroke-width:4.2455;stroke-linecap:round;}
	.st12{fill:none;stroke:#B115FF;stroke-width:4.7761;stroke-linecap:round;}
	.st13{fill:#B115FF;stroke:#B115FF;stroke-linecap:round;}
	.st14{fill:#B115FF;stroke:#B115FF;}
</style>
<g id="svg3001" inkscape:version="0.48.4 r9939" sodipodi:docname="–≤–Р–£–≤–РвА†¬ђ—Т–≤–РвА†–≤–Р–£вАУ“Р¬ђ—ТвАФ–І–≤–Р–£–≤–РвА†¬ђ—Т–≤–РвА†–≤–Р–£¬ђвИЮ–≤–Р–£–≤–РвА†¬ђ—Т–≤–РвА†–≤–Р–£¬ђвИЮвАУвЙ§вАУ–†вАУ¬І 3 –≤–Р–£–≤–РвА†¬ђ—Т–≤–РвА†–≤–Р–£¬ђвИЮвАУвЙ§вАУ–†вАУ¬Ѓ 4.svg" xmlns:cc="http://creativecommons.org/ns#" xmlns:dc="http://purl.org/dc/elements/1.1/" xmlns:inkscape="http://www.inkscape.org/namespaces/inkscape" xmlns:osb="http://www.openswatchbook.org/uri/2009/osb" xmlns:rdf="http://www.w3.org/1999/02/22-rdf-syntax-ns#" xmlns:sodipodi="http://sodipodi.sourceforge.net/DTD/sodipodi-0.dtd" xmlns:svg="http://www.w3.org/2000/svg">
	
		<sodipodi:namedview  bordercolor="#666666" borderopacity="1" gridtolerance="10" guidetolerance="10" id="namedview3011" inkscape:current-layer="svg3001" inkscape:cx="1662.0237" inkscape:cy="1029.1822" inkscape:guide-bbox="true" inkscape:pageopacity="0" inkscape:pageshadow="2" inkscape:window-height="657" inkscape:window-maximized="1" inkscape:window-width="1280" inkscape:window-x="-8" inkscape:window-y="-8" inkscape:zoom="0.59325274" objecttolerance="10" pagecolor="#ffffff" showgrid="false" showguides="true">
		</sodipodi:namedview>
	<polygon class="st0" points="3946,3378.5 4230.1,3378.5 4230.1,3446.3 3947,3446.3 	"/>
	<line id="line3008" class="st1" x1="3917.2" y1="3839.1" x2="4022.8" y2="3838.8"/>
	<g id="Слой_2_1_">
	</g>
	<path id="path3077_1_" inkscape:connector-curvature="0" sodipodi:nodetypes="cccccccccccccccccc" class="st2" d="M4208,3438.6
		l-258.5,0.2l-34.5,41.4l0.8,317.2h1194.9v-174.1h-109.1v-194.8H4661v-116.1h-180.3l-21.5-25.8V2329H4669v-361.3h-188.3v-73.1h-32.5
		v-14.9l68.5-1.3v-240.6l48.3,0.1l165.1-0.1l53.4-53l1.2-88.1h-226v-149.4h-99.4v-115.6h-544.4v105.6h-206v-105.6H3354v105.6h-138.8
		v174.8h1147.5V1633h39.7v261.5h-322.2v354.6h167.6v219.4l130.8-0.9l0.4,452h-151v455.9"/>
	<path id="path3851" inkscape:connector-curvature="0" sodipodi:nodetypes="cccc" class="st3" d="M4227.1,3418.6h105.1h1.4l9.6,7.4"
		/>
	<path id="path3853" inkscape:connector-curvature="0" sodipodi:nodetypes="ccc" class="st3" d="M4364.7,3449.3l11.4,10.1v335.9"/>
	<path id="path3863" inkscape:connector-curvature="0" class="st3" d="M4668.6,3794.8v-295.5l-167.1,1v29.6"/>
	<path id="path3865" inkscape:connector-curvature="0" class="st3" d="M4501.5,3798.3v-218.7"/>
	<path id="path3867" inkscape:connector-curvature="0" class="st3" d="M4669.6,3661.5h175.8"/>
	<path id="path3869" inkscape:connector-curvature="0" class="st3" d="M4869.9,3661.5h20.2v138.8"/>
	<path id="path3871" inkscape:connector-curvature="0" class="st3" d="M5113.9,3661.5h-185.8"/>
	<path id="path3873" inkscape:connector-curvature="0" class="st3" d="M4909.6,3661.5h-22"/>
	<path id="path3877" inkscape:connector-curvature="0" class="st3" d="M5019.4,3624.5h-51.7"/>
	<path id="path3879" inkscape:connector-curvature="0" class="st3" d="M4942.3,3624.5H4778"/>
	<path id="path3881" inkscape:connector-curvature="0" class="st3" d="M4754.1,3624.5h-22.8v-95.6h158.8v94.6"/>
	<path id="path3883" inkscape:connector-curvature="0" class="st3" d="M4892.1,3528.9l109.5-0.6"/>
	<path id="path3889" inkscape:connector-curvature="0" class="st3" d="M4731.3,3528.3v-51.7h19.7v32h250.6"/>
	<path id="path3891" inkscape:connector-curvature="0" class="st3" d="M4750.6,3427v14h-19.7v-14"/>
	<path id="path3893" inkscape:connector-curvature="0" class="st4" d="M4730.3,3474.6V3444h6.6v30.7h6.6V3444h6.6v30.7"/>
	<path id="path3895" inkscape:connector-curvature="0" class="st3" d="M4668.6,3534.4v-46"/>
	<path id="path3897" inkscape:connector-curvature="0" class="st3" d="M4668.6,3426.5v17.1"/>
	<path id="path3899" inkscape:connector-curvature="0" class="st4" d="M4687.9,3487.9H4605v-43.8h82.9V3487.9z"/>
	<path id="path3901" inkscape:connector-curvature="0" sodipodi:nodetypes="cccccc" class="st4" d="M4679.6,3487.9l0.4-43.8h-7.9
		v43.8l-7.4,0.4v-43.8"/>
	<path id="path3903" inkscape:connector-curvature="0" class="st4" d="M4657.7,3487.9v-43.8"/>
	<path id="path3905" inkscape:connector-curvature="0" class="st4" d="M4650.7,3487.9v-43.8"/>
	<path id="path3907" inkscape:connector-curvature="0" class="st4" d="M4643.3,3487.9v-43.8"/>
	<path id="path3909" inkscape:connector-curvature="0" class="st4" d="M4635.8,3487.9v-43.8"/>
	<path id="path3911" inkscape:connector-curvature="0" class="st4" d="M4628.8,3487.9v-43.8"/>
	<path id="path3913" inkscape:connector-curvature="0" class="st4" d="M4620.9,3487.9v-43.8"/>
	<path id="path3915" inkscape:connector-curvature="0" class="st4" d="M4613.1,3444.5v43.8"/>
	<path id="path3925" inkscape:connector-curvature="0" class="st3" d="M4227.1,3285.8H4380v-16.9v-106.5"/>
	<path id="path3927" inkscape:connector-curvature="0" class="st3" d="M4380,3121.3v-205.7"/>
	<path id="path3931" inkscape:connector-curvature="0" sodipodi:nodetypes="cccc" class="st4" d="M4403.2,1740.4h27.6v-6.6h-28"/>
	<path id="path3933" inkscape:connector-curvature="0" class="st4" d="M4403.6,1712.8h26.7"/>
	<path id="path3935" inkscape:connector-curvature="0" class="st5" d="M4429.9,1705.3h-27.6"/>
	<path id="path3937" inkscape:connector-curvature="0" class="st6" d="M4430.8,1740.8v-66.1"/>
	<path id="path3939" inkscape:connector-curvature="0" class="st4" d="M4403.2,1698.3h27.2"/>
	<path id="path3941" inkscape:connector-curvature="0" class="st4" d="M4402.3,1690.4h28"/>
	<path id="path3943" inkscape:connector-curvature="0" class="st4" d="M4401.9,1683h28.9"/>
	<path id="path3945" inkscape:connector-curvature="0" class="st4" d="M4401,1675.5h29.8h6.1"/>
	<path id="path3947" inkscape:connector-curvature="0" sodipodi:nodetypes="cc" class="st4" d="M4430.8,1719.8
		c-6.1-0.4-17.5,0-26.7,0"/>
	<path id="path3949" inkscape:connector-curvature="0" class="st4" d="M4430.8,1726.8h-28"/>
	<path id="path3953" inkscape:connector-curvature="0" sodipodi:nodetypes="ccccc" class="st4" d="M4464.9,1675.1h-28v53.9h28
		V1675.1z"/>
	<path id="path3955" inkscape:connector-curvature="0" class="st4" d="M4436.9,1721.5h28"/>
	<path id="path3957" inkscape:connector-curvature="0" class="st4" d="M4436.9,1713.7h28"/>
	<path id="path3959" inkscape:connector-curvature="0" class="st4" d="M4464.9,1706.2h-28"/>
	<path id="path3961" inkscape:connector-curvature="0" class="st4" d="M4436.9,1698.3h28"/>
	<path id="path3963" inkscape:connector-curvature="0" class="st4" d="M4464.9,1690.9h-28"/>
	<path id="path3965" inkscape:connector-curvature="0" class="st4" d="M4436.9,1683h28"/>
	<path id="path3971" inkscape:connector-curvature="0" sodipodi:nodetypes="cc" class="st3" d="M4462.9,1675.1v-33.4h-26"/>
	<path id="path3979" inkscape:connector-curvature="0" class="st3" d="M4462.9,1642v-104.6l-27.7-0.2"/>
	<path id="path3981" inkscape:connector-curvature="0" class="st3" d="M4407,1537.1h-47.5"/>
	<path id="path3983" inkscape:connector-curvature="0" class="st3" d="M4456.2,1537.1v-15.8"/>
	<path id="path3985" inkscape:connector-curvature="0" class="st3" d="M4456.2,1510.1v-12.5h107.3"/>
	<path id="path3987" inkscape:connector-curvature="0" class="st3" d="M4462.9,1635.9h15.9"/>
	<path id="path4003" inkscape:connector-curvature="0" class="st3" d="M4461.2,1548.1h17.5"/>
	<path id="path4005" inkscape:connector-curvature="0" class="st3" d="M4508.7,1548.1h16.6"/>
	<path id="path4007" inkscape:connector-curvature="0" class="st3" d="M4567,1639.9v-91.4h-8.8"/>
	<path id="path4009" inkscape:connector-curvature="0" class="st4" d="M4621.3,1497.4v135.1v6"/>
	<path id="path4011" inkscape:connector-curvature="0" class="st4" d="M4712.8,1496.2v141.6"/>
	<path id="path4013" inkscape:connector-curvature="0" class="st4" d="M4621.3,1592h91.5"/>
	<path id="path4015" inkscape:connector-curvature="0" class="st4" d="M4621.3,1585h91.5"/>
	<path id="path4017" inkscape:connector-curvature="0" class="st4" d="M4712.8,1544h-92.4"/>
	<path id="path4019" inkscape:connector-curvature="0" class="st4" d="M4621.3,1538h91.5"/>
	<path id="path4035" inkscape:connector-curvature="0" class="st4" d="M4629.2,1494.9v43.5"/>
	<path id="path4037" inkscape:connector-curvature="0" class="st4" d="M4637.9,1497.9v40.1"/>
	<path id="path4039" inkscape:connector-curvature="0" class="st4" d="M4646.2,1538v-43.5"/>
	<path id="path4041" inkscape:connector-curvature="0" class="st4" d="M4655,1495.8v42.8"/>
	<path id="path4043" inkscape:connector-curvature="0" class="st4" d="M4662.9,1494v44.4"/>
	<path id="path4045" inkscape:connector-curvature="0" class="st4" d="M4670.8,1538v-43.2"/>
	<path id="path4047" inkscape:connector-curvature="0" class="st4" d="M4680,1497.1v41"/>
	<path id="path4049" inkscape:connector-curvature="0" class="st4" d="M4687.9,1538v-44"/>
	<path id="path4051" inkscape:connector-curvature="0" class="st4" d="M4695.7,1497.1v41"/>
	<path id="path4053" inkscape:connector-curvature="0" class="st4" d="M4703.2,1538v-42.8"/>
	<path id="path4055" inkscape:connector-curvature="0" class="st4" d="M4703.2,1544v41"/>
	<path id="path4057" inkscape:connector-curvature="0" class="st4" d="M4695.7,1585v-41"/>
	<path id="path4059" inkscape:connector-curvature="0" class="st4" d="M4687.9,1544v41"/>
	<path id="path4061" inkscape:connector-curvature="0" class="st4" d="M4680,1585v-41"/>
	<path id="path4063" inkscape:connector-curvature="0" class="st4" d="M4670.8,1544v41"/>
	<path id="path4065" inkscape:connector-curvature="0" class="st4" d="M4662.9,1585v-41"/>
	<path id="path4067" inkscape:connector-curvature="0" class="st4" d="M4655,1544v41"/>
	<path id="path4069" inkscape:connector-curvature="0" class="st4" d="M4646.2,1585v-41"/>
	<path id="path4071" inkscape:connector-curvature="0" class="st4" d="M4637.9,1544v41"/>
	<path id="path4073" inkscape:connector-curvature="0" class="st4" d="M4629.2,1544v41"/>
	<path id="path4075" inkscape:connector-curvature="0" class="st4" d="M4629.2,1592v45.7"/>
	<path id="path4077" inkscape:connector-curvature="0" class="st4" d="M4637.9,1639.4v-47.5"/>
	<path id="path4079" inkscape:connector-curvature="0" class="st4" d="M4646.2,1592v45.7"/>
	<path id="path4081" inkscape:connector-curvature="0" class="st4" d="M4655,1638.6V1592"/>
	<path id="path4083" inkscape:connector-curvature="0" class="st4" d="M4662.9,1592v47"/>
	<path id="path4085" inkscape:connector-curvature="0" class="st4" d="M4670.8,1640.7v-48.8"/>
	<path id="path4087" inkscape:connector-curvature="0" class="st4" d="M4680,1592v45.7"/>
	<path id="path4089" inkscape:connector-curvature="0" class="st4" d="M4687.9,1639.4v-47.5"/>
	<path id="path4091" inkscape:connector-curvature="0" class="st4" d="M4695.7,1592v47.9"/>
	<path id="path4093" inkscape:connector-curvature="0" class="st4" d="M4703.2,1638.6V1592"/>
	<rect x="3844.4" y="3459.9" class="st0" width="70.5" height="80.4"/>
	<rect x="3849.8" y="3375.5" class="st0" width="377.3" height="158.4"/>
	<path class="st0" d="M3961.2,3446.1l-41.1,45.6c-5.5,6.1-15,6.6-21.1,1.1l-10.4-9.4c-6.1-5.5-6.6-15-1.1-21.1l41.1-45.6
		c5.5-6.1,15-6.6,21.1-1.1l10.4,9.4C3966.2,3430.5,3966.7,3439.9,3961.2,3446.1z"/>
	<rect x="3898" y="3405.5" class="st0" width="66.5" height="26.4"/>
	<path id="path3023_1_" inkscape:connector-curvature="0" sodipodi:nodetypes="ccccccccccc" class="st7" d="M3848,3513.9l0.8-142.4
		h383.7 M3915,3614.4v-154.2l34.5-41.4l279.5-0.2"/>
	<path id="path3987_1_" inkscape:connector-curvature="0" class="st3" d="M4508.8,1635.9l21-0.1"/>
	
		<g id="path9342-9" inkscape:flatsided="true" inkscape:randomized="0" inkscape:rounded="0" sodipodi:arg1="0.78705455" sodipodi:arg2="1.5724527" sodipodi:cx="909.99371" sodipodi:cy="207.54369" sodipodi:r1="7.2781053" sodipodi:r2="7.0723581" sodipodi:sides="4" sodipodi:type="star">
		<rect id="rect3155" x="4484.3" y="1563.6" class="st8" width="58" height="57"/>
		<path id="path3157" class="st9" d="M4540.3,1565.6c-18.7,0.3-37.2,0.4-56,0.1l2.1-2.1v57l-2.1-2.1h58l-2.1,2.1
			C4539.9,1602.1,4540,1583.9,4540.3,1565.6z M4544.3,1561.6c0.3,19.6,0.4,39.5,0.1,59v2.1h-2.1h-58h-2.1v-2.1v-57v-2.1h2.1
			C4504.1,1561.2,4524.3,1561.2,4544.3,1561.6z"/>
		<path id="path9351-5" inkscape:connector-curvature="0" class="st10" d="M4503.9,1589.4v4.8"/>
		<path id="path10019-3" inkscape:connector-curvature="0" sodipodi:nodetypes="cc" class="st11" d="M4497.4,1585
			c-4.4,4.8-4.8,8.3-3.1,11.4"/>
		<path id="path10019-2-4" inkscape:connector-curvature="0" sodipodi:nodetypes="cc" class="st11" d="M4519.7,1573.6
			c-1.3,4.4-2.6,11.8-9.2,11.4"/>
		<path id="path10039-32" inkscape:connector-curvature="0" sodipodi:nodetypes="cc" class="st12" d="M4501.3,1598.1l-3.9,16.2"/>
		<path id="path10039-3-1" inkscape:connector-curvature="0" sodipodi:nodetypes="cc" class="st12" d="M4506.6,1597.3
			c0.4,1.8,0.9-0.4,3.5,16.6"/>
		<polygon id="polygon3165" class="st13" points="4520.2,1596.6 4531.8,1596.6 4526,1608.1 		"/>
		<polygon id="polygon3167" class="st13" points="4532.3,1590.4 4519.7,1590.4 4526,1577.7 		"/>
		<path id="path9344-7_1_" inkscape:connector-curvature="0" sodipodi:nodetypes="ssccss" class="st14" d="M4508.6,1575.3
			c0,2.6-2.6,5.3-5.3,5.3c-2.7,0-5.3-2.6-5.3-5.3l0,0c0-2.6,2.6-5.3,5.3-5.3S4508.6,1571.8,4508.6,1575.3z"/>
	</g>
</g>
</svg>
