<?xml version="1.0" encoding="utf-8"?>
<!-- Generator: Adobe Illustrator 22.1.0, SVG Export Plug-In . SVG Version: 6.00 Build 0)  -->
<svg version="1.1"
	 id="Слой_1" inkscape:version="0.48.4 r9939" sodipodi:docname="–†¬ї–†—Ч–†—Ш 1.svg" xmlns:cc="http://creativecommons.org/ns#" xmlns:dc="http://purl.org/dc/elements/1.1/" xmlns:inkscape="http://www.inkscape.org/namespaces/inkscape" xmlns:rdf="http://www.w3.org/1999/02/22-rdf-syntax-ns#" xmlns:sodipodi="http://sodipodi.sourceforge.net/DTD/sodipodi-0.dtd" xmlns:svg="http://www.w3.org/2000/svg"
	 xmlns="http://www.w3.org/2000/svg" xmlns:xlink="http://www.w3.org/1999/xlink" x="0px" y="0px" viewBox="0 0 1920 1080"
	 style="enable-background:new 0 0 1920 1080;" xml:space="preserve">
<style type="text/css">
	.st0{fill:#F8DDCC;}
	.st1{fill:none;stroke:#000000;stroke-width:5;}
	.st2{fill:none;stroke:#000000;stroke-width:4.9311;}
	.st3{fill:#9833FF;}
	.st4{fill:#9833FF;stroke:#9833FF;}
	.st5{fill:none;stroke:#9833FF;stroke-width:14.3284;stroke-linecap:round;stroke-miterlimit:1;}
	.st6{fill:none;stroke:#9833FF;stroke-width:4.2455;stroke-linecap:round;}
	.st7{fill:none;stroke:#9833FF;stroke-width:4.7761;stroke-linecap:round;}
	.st8{fill:#9833FF;stroke:#9833FF;stroke-linecap:round;}
	.st9{fill:none;stroke:#000000;}
	.st10{fill:none;stroke:#000000;stroke-width:0.6814;}
	.st11{fill:none;stroke:#000000;stroke-width:0.9162;}
	.st12{fill:#F8DDCC;fill-opacity:0;stroke:#000000;stroke-width:9;}
</style>
<polygon class="st0" points="1128.7,613.2 1169.7,567.6 1191.5,587.2 1181.7,598 1180.5,605.1 1163.7,621.8 1150.5,632.8 "/>
<rect x="1125.7" y="565.8" class="st0" width="69" height="25"/>
<rect x="872.3" y="565.8" class="st0" width="276" height="72.4"/>
<rect x="858.3" y="497.9" class="st0" width="336.3" height="69.9"/>
<sodipodi:namedview  bordercolor="#666666" borderopacity="1" gridtolerance="10" guidetolerance="10" id="namedview3107" inkscape:current-layer="Слой_2_1_" inkscape:cx="1079.3073" inkscape:cy="526.1268" inkscape:guide-bbox="true" inkscape:pageopacity="0" inkscape:pageshadow="2" inkscape:window-height="657" inkscape:window-maximized="1" inkscape:window-width="1280" inkscape:window-x="-8" inkscape:window-y="-8" inkscape:zoom="2.4617792" objecttolerance="10" pagecolor="#ffffff" showgrid="false" showguides="true">
	</sodipodi:namedview>
<g id="Слой_2_1_">
	<path id="path9290" class="st1" d="M927,566.2h-18.4"/>
	<path id="path9292" class="st1" d="M970.3,641.5v-73.7"/>
	<line id="line3152" class="st2" x1="972.8" y1="565.8" x2="957.3" y2="565.8"/>
	<g id="path9342-9" transform="translate(0,-4)">
		<path id="path3157" class="st3" d="M948.5,579.4c-18.7,0.3-37.2,0.4-56,0.1l2.1-2.1v57l-2.1-2.1h58l-2.1,2.1
			C948.1,615.9,948.2,597.7,948.5,579.4L948.5,579.4z M952.5,575.4c0.3,19.6,0.4,39.5,0.1,59v2.1h-2.1h-58h-2.1v-2.1v-57v-2.1h2.1
			C912.3,575,932.5,575,952.5,575.4L952.5,575.4z"/>
	</g>
	<path id="path9344-7" class="st4" d="M917.1,585.5c0,2.6-2.6,5.3-5.3,5.3s-5.3-2.6-5.3-5.3l0,0c0-2.6,2.6-5.3,5.3-5.3
		S917.1,582,917.1,585.5z"/>
	<path id="path9351-5" class="st5" d="M912.1,597.2v4.8"/>
	<path id="path10019-3" class="st6" d="M905.6,594.8c-4.4,4.8-4.8,8.3-3.1,11.4"/>
	<path id="path10019-2-4" class="st6" d="M927.9,583.4c-1.3,4.4-2.6,11.8-9.2,11.4"/>
	<path id="path10039-32" class="st7" d="M909.5,607.9l-3.9,16.2"/>
	<path id="path10039-3-1" class="st7" d="M914.8,607.1c0.4,1.8,0.9-0.4,3.5,16.6"/>
	<polygon id="polygon3165" class="st8" points="940,606.4 934.2,617.9 928.4,606.4 	"/>
	<polygon id="polygon3167" class="st8" points="927.9,600.2 934.2,587.5 940.5,600.2 	"/>
	<path id="path4009" class="st9" d="M1027.3,497.9V635v6.1"/>
	<path id="path4013" class="st9" d="M1027.3,593.8h91.5"/>
	<path id="path4015" inkscape:connector-curvature="0" class="st10" d="M1027,586.8h42.5"/>
	<path id="path4017" inkscape:connector-curvature="0" class="st11" d="M1069.3,545.3h-2.4l-39.5-0.2"/>
	<path id="path4019_2_" class="st9" d="M1027.3,539.1h91.5v-40.8"/>
	<path id="path4035" class="st9" d="M1035.2,495.3v44.2"/>
	<path id="path4037" class="st9" d="M1044,498.3V539"/>
	<path id="path4039" class="st9" d="M1052.3,539.1v-44.2"/>
	<path id="path4041" class="st9" d="M1061,496.1v43.4"/>
	<path id="path4043" class="st9" d="M1068.9,494.4v45.1"/>
	<path id="path4045" class="st9" d="M1076.8,539.1v-43.8"/>
	<path id="path4047" class="st9" d="M1086,497.5v41.6"/>
	<path id="path4049" class="st9" d="M1093.9,539.1v-44.7"/>
	<path id="path4051" class="st9" d="M1101.8,497.5v41.6"/>
	<path id="path4053" class="st9" d="M1109.2,539.1v-43.4"/>
	<path id="path4065" class="st9" d="M1068.9,586.8v-41.6"/>
	<path id="path4067" class="st9" d="M1061,545.2v41.6"/>
	<path id="path4069" class="st9" d="M1052.3,586.8v-41.6"/>
	<path id="path4071" class="st9" d="M1044,545.2v41.6"/>
	<path id="path4073" class="st9" d="M1035.2,545.2v41.6"/>
	<path id="path4075" class="st9" d="M1035.2,593.8v46.4"/>
	<path id="path4077" class="st9" d="M1044,642v-48.2"/>
	<path id="path4079" class="st9" d="M1052.3,593.8v46.4"/>
	<path id="path4081" class="st9" d="M1061,641.1v-47.3"/>
	<path id="path4083" class="st9" d="M1068.9,593.8v47.7"/>
	<path id="path4085" class="st9" d="M1076.8,643.3v-49.5"/>
	<path id="path4087" class="st9" d="M1086,593.8v46.4"/>
	<path id="path4089" class="st9" d="M1093.9,642v-48.2"/>
	<path id="path4091" class="st9" d="M1101.8,593.8v48.6"/>
	<path id="path4093" class="st9" d="M1109.2,641.1v-47.3"/>
	<path id="path3115" inkscape:connector-curvature="0" class="st9" d="M1118.3,638.2v-44.4"/>
	<path id="path3117_1_" inkscape:connector-curvature="0" class="st9" d="M1118.3,593.8"/>
</g>
<path id="path3127_2_" class="st12" d="M1177.3,601.9l19.7-19.6v-89H855.9v71.2H872v74.1h268.3l20.2-20.1"/>
</svg>
