<?xml version="1.0" encoding="utf-8"?>
<!-- Generator: Adobe Illustrator 22.1.0, SVG Export Plug-In . SVG Version: 6.00 Build 0)  -->
<svg version="1.1" id="Слой_1" xmlns="http://www.w3.org/2000/svg" xmlns:xlink="http://www.w3.org/1999/xlink" x="0px" y="0px"
	 viewBox="0 0 1920 1080" style="enable-background:new 0 0 1920 1080;" xml:space="preserve">
<style type="text/css">
	.st0{fill:#F8DDCC;stroke:#000000;stroke-width:5.4;}
	.st1{fill:none;stroke:#000000;}
	.st2{fill:none;stroke:#000000;stroke-width:1.0062;}
	.st3{fill:none;stroke:#000000;stroke-width:3;}
	.st4{fill:none;stroke:#000000;stroke-width:1.1968;stroke-opacity:0.4136;}
	.st5{fill:none;stroke:#000000;stroke-width:1.1677;stroke-opacity:0.4136;}
	.st6{display:none;opacity:0.53;}
</style>
<g id="svg6048" inkscape:version="0.48.4 r9939" sodipodi:docname="–≤–Р–£–≤–РвА†¬ђ—Т–≤–РвА†–≤–Р–£вАУ“Р¬ђ—Т–≤–РвА†–≤–Р–£–≤–РвА†–≤–Р–£вАУ–Ѓ–≤–Р–£–≤–Щ¬І–≤–Р–£вАУ–Ґ–≤–Р–£–≤–РвА†¬ђ—Т–≤–РвА†–≤–Р–£вАУ“Р¬ђ—Т–≤–РвА†–≤–Р–£–≤–РвА†¬ђ—Т–≤–РвА†–≤–Р–£–≤–Щ¬І–≤–Р–£вАУ–Ґ¬ђ—Т¬ђ“С–≤–Р–£–≤–РвА†¬ђ—Т–≤–РвА†–≤–Р–£вАУ“Р¬ђ—Т–≤–РвА†–≤–Р–£–≤–РвА†–≤–Р–£вАУ–Ѓ–≤–Р–£–≤–Щ¬І–≤–Р–£вАУ–ҐвАУвЙ§вАУ–†вАУ—Т–≤–Р–£–≤–РвА†¬ђ—Т–≤–РвА†–≤–Р–£–≤–РвА†–≤–Р–£вАУ–Ђ–≤–Р–£–≤–РвА†¬ђ—Т–≤–РвА†–≤–Р–£–≤–Щ¬І–≤–Р–£вАУ–Ґ–≤–Р–§вАУ¬©–≤–Р–£–≤–РвА†¬ђ—Т–≤–РвА†–≤–Р–£вАУ“Р¬ђ—Т–≤–РвА†–≤–Р–£–≤–РвА†–≤–Р–£вАУ–Ѓ–≤–Р–£–≤–Щ¬І–≤–Р–£вАУ–Ґ–≤–Р–£–≤–РвА†¬ђ—Т–≤–РвА†–≤–Р–£вАУ“Р¬ђ—Т–≤–РвА†–≤–Р–£–≤–РвА†вАУвЙ§вАУ–†вАУ¬©–≤–Р–£вАУ“Р¬ђ—Т–≤–Ш–Ѓ 3.jpg" xmlns:cc="http://creativecommons.org/ns#" xmlns:dc="http://purl.org/dc/elements/1.1/" xmlns:inkscape="http://www.inkscape.org/namespaces/inkscape" xmlns:rdf="http://www.w3.org/1999/02/22-rdf-syntax-ns#" xmlns:sodipodi="http://sodipodi.sourceforge.net/DTD/sodipodi-0.dtd" xmlns:svg="http://www.w3.org/2000/svg">
	
		<sodipodi:namedview  bordercolor="#666666" borderopacity="1" gridtolerance="10" guidetolerance="10" id="namedview6050" inkscape:current-layer="svg6048" inkscape:cx="819.79322" inkscape:cy="589.60659" inkscape:guide-bbox="true" inkscape:pageopacity="0" inkscape:pageshadow="2" inkscape:window-height="657" inkscape:window-maximized="1" inkscape:window-width="1280" inkscape:window-x="-8" inkscape:window-y="-8" inkscape:zoom="0.57502304" objecttolerance="10" pagecolor="#ffffff" showgrid="false" showguides="true">
		</sodipodi:namedview>
	<path id="path6058_1_" inkscape:connector-curvature="0" sodipodi:nodetypes="cccccccccccccccccccccccc" class="st0" d="
		M1313.6,406.6c0,14.2,0,32.2,0,46.4l-99.4-0.1l-1,138.1l-184.8,1l-153.8,0.5l-0.5-87.3l-53.3,0.5l0.5-57.9l-142.7-0.5l1.2-141.3
		l17.5-0.1l22,0.2l0.4,107.6l99.5-1v-6.6l207.1,0.5l43.7,0l0-83.3l5.3,0v-8.7l46.1,0.1v91.9c50.4,0,147.6,0,147.6,0"/>
	<path id="path4501-3" inkscape:connector-curvature="0" sodipodi:nodetypes="cc" class="st1" d="M700.4,381.1l18.7,0.1"/>
	<path id="path4501-7-8" inkscape:connector-curvature="0" sodipodi:nodetypes="cc" class="st1" d="M700.4,377.1h18"/>
	<path id="path4501-4-08" inkscape:connector-curvature="0" sodipodi:nodetypes="cc" class="st1" d="M700.2,373l18.7-0.3"/>
	<path id="path4501-0-8" inkscape:connector-curvature="0" sodipodi:nodetypes="cc" class="st1" d="M700.6,368.9
		c6.5-0.1,14.9,0.1,18.2-0.1"/>
	<path id="path4501-23-06" inkscape:connector-curvature="0" sodipodi:nodetypes="cc" class="st1" d="M700.6,385.2l18.2-0.1"/>
	<path id="path4501-00-8" inkscape:connector-curvature="0" sodipodi:nodetypes="cc" class="st1" d="M700.5,361.4H718"/>
	<path id="path4501-7-6-1" inkscape:connector-curvature="0" sodipodi:nodetypes="cc" class="st1" d="M700.5,357.3h17.1"/>
	<path id="path4501-4-1-9" inkscape:connector-curvature="0" sodipodi:nodetypes="cc" class="st1" d="M700.3,352.9l17.8,0.1"/>
	<path id="path4501-0-3-8" inkscape:connector-curvature="0" sodipodi:nodetypes="cc" class="st1" d="M700.6,348.9h17.8"/>
	<path id="path4501-23-8-9" inkscape:connector-curvature="0" sodipodi:nodetypes="cc" class="st1" d="M700.3,365.1l18.1-0.1"/>
	<path id="path4501-5-7" inkscape:connector-curvature="0" sodipodi:nodetypes="cc" class="st1" d="M700.4,341.6h18.3"/>
	<path id="path4501-7-4-2" inkscape:connector-curvature="0" sodipodi:nodetypes="cc" class="st1" d="M700.5,337.7l17.8-0.1"/>
	<path id="path4501-4-12-2" inkscape:connector-curvature="0" sodipodi:nodetypes="cc" class="st1" d="M700.7,333.3H718"/>
	<path id="path4501-0-0-8" inkscape:connector-curvature="0" sodipodi:nodetypes="cc" class="st1" d="M700.4,329.2l18,0.1"/>
	<path id="path4501-23-0-2" inkscape:connector-curvature="0" sodipodi:nodetypes="cc" class="st1" d="M700.2,345.2h18"/>
	<path id="path4501-2-8" inkscape:connector-curvature="0" sodipodi:nodetypes="cc" class="st1" d="M700.4,322h17.4"/>
	<path id="path4501-7-5-9" inkscape:connector-curvature="0" sodipodi:nodetypes="ccc" class="st2" d="M700.6,318.4h4.4h12.7"/>
	<path id="path4501-23-4-0" inkscape:connector-curvature="0" sodipodi:nodetypes="cc" class="st1" d="M700.5,325.8l17.1-0.1"/>
	<path id="path5263" inkscape:connector-curvature="0" sodipodi:nodetypes="cc" class="st1" d="M700.3,318.1v67.2"/>
	<path id="path4501" inkscape:connector-curvature="0" sodipodi:nodetypes="cc" class="st1" d="M679.8,381.4h18.1"/>
	<path id="path4501-7" inkscape:connector-curvature="0" sodipodi:nodetypes="cc" class="st1" d="M679.8,377.1l18.7,0.1"/>
	<path id="path4501-4" inkscape:connector-curvature="0" sodipodi:nodetypes="cc" class="st1" d="M679.4,372.8l19,0.1"/>
	<path id="path4501-0" inkscape:connector-curvature="0" sodipodi:nodetypes="cc" class="st1" d="M679.1,368.5h19"/>
	<path id="path4501-23" inkscape:connector-curvature="0" sodipodi:nodetypes="cc" class="st1" d="M679.8,385.3l18.3,0.1"/>
	<path id="path4501-00" inkscape:connector-curvature="0" sodipodi:nodetypes="cc" class="st1" d="M679.7,360.5l18.2,0.1"/>
	<path id="path4501-7-6" inkscape:connector-curvature="0" sodipodi:nodetypes="cc" class="st1" d="M679.7,356.3h18.4"/>
	<path id="path4501-4-1" inkscape:connector-curvature="0" sodipodi:nodetypes="cc" class="st1" d="M679.3,351.9h18.8"/>
	<path id="path4501-0-3" inkscape:connector-curvature="0" sodipodi:nodetypes="cc" class="st1" d="M679,347.7h19"/>
	<path id="path4501-23-8" inkscape:connector-curvature="0" sodipodi:nodetypes="cc" class="st1" d="M679.7,364.4l18.4,0.1"/>
	<path id="path4501-5" inkscape:connector-curvature="0" sodipodi:nodetypes="cc" class="st1" d="M679.5,339.7h18.3"/>
	<path id="path4501-7-4" inkscape:connector-curvature="0" sodipodi:nodetypes="cc" class="st1" d="M679.4,335.4l18.7,0.1"/>
	<path id="path4501-4-12" inkscape:connector-curvature="0" sodipodi:nodetypes="cc" class="st1" d="M679,331h18.7"/>
	<path id="path4501-0-0" inkscape:connector-curvature="0" sodipodi:nodetypes="cc" class="st1" d="M678.7,326.8h19.2"/>
	<path id="path4501-23-0" inkscape:connector-curvature="0" sodipodi:nodetypes="cc" class="st1" d="M679.4,343.6h18.5"/>
	<path id="path4501-2" inkscape:connector-curvature="0" sodipodi:nodetypes="cc" class="st1" d="M680.4,318.8l17.1-0.1"/>
	<path id="path4501-7-5" inkscape:connector-curvature="0" sodipodi:nodetypes="cc" class="st1" d="M679.7,314.5h18"/>
	<path id="path4501-4-0" inkscape:connector-curvature="0" sodipodi:nodetypes="cc" class="st1" d="M679.4,310.7l18.2,0.1"/>
	<path id="path4501-0-9" inkscape:connector-curvature="0" sodipodi:nodetypes="ccc" class="st1" d="M678.2,305.6l19.4-0.4l0.6,80.3
		"/>
	<path id="path4501-23-4" inkscape:connector-curvature="0" sodipodi:nodetypes="cc" class="st1" d="M679.7,322.7h18.2"/>
	<path id="path7593" inkscape:connector-curvature="0" class="st3" d="M679.8,413.6h9.5"/>
	<path id="path7593-6" inkscape:connector-curvature="0" class="st3" d="M707.2,413.7l10.3-0.1"/>
	<path id="path7615" inkscape:connector-curvature="0" class="st3" d="M820.3,414.2v8.3"/>
	<path id="path7615-1" inkscape:connector-curvature="0" class="st3" d="M820.6,438.6v8.3"/>
	<path id="path7635" inkscape:connector-curvature="0" sodipodi:nodetypes="cc" class="st3" d="M962.7,501l64.4-0.4"/>
	<path id="path7637" inkscape:connector-curvature="0" class="st1" d="M985.7,500.5l-0.4,90"/>
	<path id="path7639" inkscape:connector-curvature="0" class="st1" d="M981.2,501.4l-0.4,90.4"/>
	<path id="path7641" inkscape:connector-curvature="0" class="st1" d="M977.3,500.5l-0.6,92.4"/>
	<path id="path7643" inkscape:connector-curvature="0" class="st1" d="M973.7,501.2l-0.9,90.6"/>
	<path id="path7645" inkscape:connector-curvature="0" class="st1" d="M970,501.2l-0.6,89.6"/>
	<path id="path7647" inkscape:connector-curvature="0" class="st1" d="M966.4,501.4l-0.9,90.2"/>
	<path id="path7651" inkscape:connector-curvature="0" sodipodi:nodetypes="cc" class="st1" d="M961.7,590.3l1.1-90.4"/>
	
		<path id="path5685-96" inkscape:flatsided="true" inkscape:randomized="0" inkscape:rounded="0.06" inkscape:transform-center-x="-0.087786686" inkscape:transform-center-y="-1.8121362" sodipodi:arg1="0.50284321" sodipodi:arg2="1.5500408" sodipodi:cx="550.41693" sodipodi:cy="634.91528" sodipodi:r1="10.230863" sodipodi:r2="5.1154318" sodipodi:sides="3" sodipodi:type="star" class="st4" d="
		M997.9,512.9c-0.2,0.4-7.8,0.6-8.1,0.2c-0.3-0.4,3.4-6.9,3.9-6.9C994.2,506.1,998.1,512.5,997.9,512.9L997.9,512.9z"/>
	
		<path id="path5685-7-9" inkscape:flatsided="true" inkscape:randomized="0" inkscape:rounded="0.06" inkscape:transform-center-x="-0.087790713" inkscape:transform-center-y="-1.8121327" sodipodi:arg1="0.50284321" sodipodi:arg2="1.5500408" sodipodi:cx="550.41693" sodipodi:cy="634.91528" sodipodi:r1="10.230863" sodipodi:r2="5.1154318" sodipodi:sides="3" sodipodi:type="star" class="st4" d="
		M998.6,529.3c-0.2,0.4-7.8,0.6-8.1,0.2c-0.3-0.4,3.4-6.9,3.9-6.9C995,522.6,998.9,528.9,998.6,529.3L998.6,529.3z"/>
	
		<path id="path5685-2-8" inkscape:flatsided="true" inkscape:randomized="0" inkscape:rounded="0.06" inkscape:transform-center-x="-0.087782045" inkscape:transform-center-y="-1.9035298" sodipodi:arg1="0.50284321" sodipodi:arg2="1.5500408" sodipodi:cx="550.41693" sodipodi:cy="634.91528" sodipodi:r1="10.230863" sodipodi:r2="5.1154318" sodipodi:sides="3" sodipodi:type="star" class="st5" d="
		M1010.3,520.1c-0.2,0.4-7.8,0.6-8.1,0.2c-0.3-0.4,3.4-7.2,3.9-7.2S1010.6,519.7,1010.3,520.1L1010.3,520.1z"/>
	
		<path id="path5685-9-2" inkscape:flatsided="true" inkscape:randomized="0" inkscape:rounded="0.06" inkscape:transform-center-x="-0.087787049" inkscape:transform-center-y="-1.8121358" sodipodi:arg1="0.50284321" sodipodi:arg2="1.5500408" sodipodi:cx="550.41693" sodipodi:cy="634.91528" sodipodi:r1="10.230863" sodipodi:r2="5.1154318" sodipodi:sides="3" sodipodi:type="star" class="st4" d="
		M1022.9,512.9c-0.2,0.4-7.8,0.6-8.1,0.2c-0.3-0.4,3.4-6.9,3.9-6.9C1019.2,506.2,1023.2,512.5,1022.9,512.9L1022.9,512.9z"/>
	
		<path id="path5685-7-4-5" inkscape:flatsided="true" inkscape:randomized="0" inkscape:rounded="0.06" inkscape:transform-center-x="-0.087791076" inkscape:transform-center-y="-1.812132" sodipodi:arg1="0.50284321" sodipodi:arg2="1.5500408" sodipodi:cx="550.41693" sodipodi:cy="634.91528" sodipodi:r1="10.230863" sodipodi:r2="5.1154318" sodipodi:sides="3" sodipodi:type="star" class="st4" d="
		M1023.7,529.2c-0.2,0.4-7.8,0.6-8.1,0.2c-0.3-0.4,3.4-6.9,3.9-6.9S1023.9,528.8,1023.7,529.2L1023.7,529.2z"/>
	
		<path id="path5685-96-8" inkscape:flatsided="true" inkscape:randomized="0" inkscape:rounded="0.06" inkscape:transform-center-x="-0.087786686" inkscape:transform-center-y="-1.8121362" sodipodi:arg1="0.50284321" sodipodi:arg2="1.5500408" sodipodi:cx="550.41693" sodipodi:cy="634.91528" sodipodi:r1="10.230863" sodipodi:r2="5.1154318" sodipodi:sides="3" sodipodi:type="star" class="st4" d="
		M998.1,546.4c-0.2,0.4-7.8,0.6-8.1,0.2c-0.3-0.4,3.4-6.9,3.9-6.9S998.4,546,998.1,546.4L998.1,546.4z"/>
	
		<path id="path5685-7-9-6" inkscape:flatsided="true" inkscape:randomized="0" inkscape:rounded="0.06" inkscape:transform-center-x="-0.087790713" inkscape:transform-center-y="-1.8121327" sodipodi:arg1="0.50284321" sodipodi:arg2="1.5500408" sodipodi:cx="550.41693" sodipodi:cy="634.91528" sodipodi:r1="10.230863" sodipodi:r2="5.1154318" sodipodi:sides="3" sodipodi:type="star" class="st4" d="
		M998.9,562.8c-0.2,0.4-7.8,0.6-8.1,0.2c-0.3-0.4,3.4-6.9,3.9-6.9C995.2,556.1,999.1,562.4,998.9,562.8L998.9,562.8z"/>
	
		<path id="path5685-2-8-2" inkscape:flatsided="true" inkscape:randomized="0" inkscape:rounded="0.06" inkscape:transform-center-x="-0.087782045" inkscape:transform-center-y="-1.9035298" sodipodi:arg1="0.50284321" sodipodi:arg2="1.5500408" sodipodi:cx="550.41693" sodipodi:cy="634.91528" sodipodi:r1="10.230863" sodipodi:r2="5.1154318" sodipodi:sides="3" sodipodi:type="star" class="st5" d="
		M1010.6,553.6c-0.2,0.4-7.8,0.6-8.1,0.2c-0.3-0.4,3.4-7.2,3.9-7.2S1010.8,553.2,1010.6,553.6L1010.6,553.6z"/>
	
		<path id="path5685-9-2-1" inkscape:flatsided="true" inkscape:randomized="0" inkscape:rounded="0.06" inkscape:transform-center-x="-0.087787049" inkscape:transform-center-y="-1.8121358" sodipodi:arg1="0.50284321" sodipodi:arg2="1.5500408" sodipodi:cx="550.41693" sodipodi:cy="634.91528" sodipodi:r1="10.230863" sodipodi:r2="5.1154318" sodipodi:sides="3" sodipodi:type="star" class="st4" d="
		M1023.2,546.4c-0.2,0.4-7.8,0.6-8.1,0.2c-0.3-0.4,3.4-6.9,3.9-6.9C1019.5,539.7,1023.4,546,1023.2,546.4L1023.2,546.4z"/>
	
		<path id="path5685-7-4-5-4" inkscape:flatsided="true" inkscape:randomized="0" inkscape:rounded="0.06" inkscape:transform-center-x="-0.087791076" inkscape:transform-center-y="-1.812132" sodipodi:arg1="0.50284321" sodipodi:arg2="1.5500408" sodipodi:cx="550.41693" sodipodi:cy="634.91528" sodipodi:r1="10.230863" sodipodi:r2="5.1154318" sodipodi:sides="3" sodipodi:type="star" class="st4" d="
		M1023.9,562.8c-0.2,0.4-7.8,0.6-8.1,0.2c-0.3-0.4,3.4-6.9,3.9-6.9C1020.2,556,1024.1,562.3,1023.9,562.8L1023.9,562.8z"/>
	
		<path id="path5685-2-8-6" inkscape:flatsided="true" inkscape:randomized="0" inkscape:rounded="0.06" inkscape:transform-center-x="-0.087782045" inkscape:transform-center-y="-1.9035298" sodipodi:arg1="0.50284321" sodipodi:arg2="1.5500408" sodipodi:cx="550.41693" sodipodi:cy="634.91528" sodipodi:r1="10.230863" sodipodi:r2="5.1154318" sodipodi:sides="3" sodipodi:type="star" class="st5" d="
		M1010.6,538.4c-0.2,0.4-7.8,0.6-8.1,0.2s3.4-7.2,3.9-7.2S1010.8,538,1010.6,538.4L1010.6,538.4z"/>
	
		<path id="path5685-96-2" inkscape:flatsided="true" inkscape:randomized="0" inkscape:rounded="0.06" inkscape:transform-center-x="-0.087786686" inkscape:transform-center-y="-1.8121362" sodipodi:arg1="0.50284321" sodipodi:arg2="1.5500408" sodipodi:cx="550.41693" sodipodi:cy="634.91528" sodipodi:r1="10.230863" sodipodi:r2="5.1154318" sodipodi:sides="3" sodipodi:type="star" class="st4" d="
		M998.5,579.3c-0.2,0.4-7.8,0.6-8.1,0.2c-0.3-0.4,3.4-6.9,3.9-6.9S998.7,578.9,998.5,579.3L998.5,579.3z"/>
	
		<path id="path5685-2-8-9" inkscape:flatsided="true" inkscape:randomized="0" inkscape:rounded="0.06" inkscape:transform-center-x="-0.087782045" inkscape:transform-center-y="-1.9035298" sodipodi:arg1="0.50284321" sodipodi:arg2="1.5500408" sodipodi:cx="550.41693" sodipodi:cy="634.91528" sodipodi:r1="10.230863" sodipodi:r2="5.1154318" sodipodi:sides="3" sodipodi:type="star" class="st5" d="
		M1010.9,586.5c-0.2,0.4-7.8,0.6-8.1,0.2c-0.3-0.4,3.4-7.2,3.9-7.2S1011.2,586.1,1010.9,586.5L1010.9,586.5z"/>
	
		<path id="path5685-9-2-15" inkscape:flatsided="true" inkscape:randomized="0" inkscape:rounded="0.06" inkscape:transform-center-x="-0.087787049" inkscape:transform-center-y="-1.8121358" sodipodi:arg1="0.50284321" sodipodi:arg2="1.5500408" sodipodi:cx="550.41693" sodipodi:cy="634.91528" sodipodi:r1="10.230863" sodipodi:r2="5.1154318" sodipodi:sides="3" sodipodi:type="star" class="st4" d="
		M1023.5,579.3c-0.2,0.4-7.8,0.6-8.1,0.2c-0.3-0.4,3.4-6.9,3.9-6.9C1019.8,572.6,1023.8,578.9,1023.5,579.3L1023.5,579.3z"/>
	
		<path id="path5685-2-8-2-0" inkscape:flatsided="true" inkscape:randomized="0" inkscape:rounded="0.06" inkscape:transform-center-x="-0.087782045" inkscape:transform-center-y="-1.9035298" sodipodi:arg1="0.50284321" sodipodi:arg2="1.5500408" sodipodi:cx="550.41693" sodipodi:cy="634.91528" sodipodi:r1="10.230863" sodipodi:r2="5.1154318" sodipodi:sides="3" sodipodi:type="star" class="st5" d="
		M1010.6,571.5c-0.2,0.4-7.8,0.6-8.1,0.2s3.4-7.2,3.9-7.2S1010.8,571.1,1010.6,571.5L1010.6,571.5z"/>
	<path id="path7821" inkscape:connector-curvature="0" class="st3" d="M1028.4,592V453.3l40-0.5"/>
	<path id="path7823" inkscape:connector-curvature="0" class="st3" d="M1083.3,452.9h37.2l0.5,138.7"/>
	<path id="path7825" inkscape:connector-curvature="0" class="st1" d="M1121,452.4l60,0.5"/>
	<path id="path7827" inkscape:connector-curvature="0" class="st3" d="M1120.8,452.9h60.2"/>
	<path id="path7829" inkscape:connector-curvature="0" class="st3" d="M1196.3,452.6l16.6,0.2"/>
</g>
<g id="Слой_2_1_">
</g>
<g id="Zdapfg.tif" class="st6">
	
		<image style="display:inline;overflow:visible;" width="982" height="769" id="Layer_0_1_" xlink:href="4459A7A807F7C9F9.png"  transform="matrix(1.0551 -0.2997 0.2997 1.0551 434.7545 190.89)">
	</image>
</g>
</svg>
