<?xml version="1.0" encoding="utf-8"?>
<!-- Generator: Adobe Illustrator 22.1.0, SVG Export Plug-In . SVG Version: 6.00 Build 0)  -->
<svg version="1.1" id="Слой_1" xmlns="http://www.w3.org/2000/svg" xmlns:xlink="http://www.w3.org/1999/xlink" x="0px" y="0px"
	 viewBox="0 0 1920 1080" style="enable-background:new 0 0 1920 1080;" xml:space="preserve">
<style type="text/css">
	.st0{fill:#F8DDCC;stroke:#000000;stroke-width:5;}
	.st1{fill:none;stroke:#000000;stroke-width:3;}
	.st2{fill:none;stroke:#000000;}
	.st3{fill:none;stroke:#000000;stroke-width:1.0062;}
	.st4{fill:none;stroke:#000000;stroke-width:1.705;stroke-opacity:0.4136;}
	.st5{fill:none;stroke:#000000;stroke-width:1.6636;stroke-opacity:0.4136;}
	.st6{opacity:0.44;}
</style>
<g id="svg3693" inkscape:version="0.48.4 r9939" sodipodi:docname="–≤–Р–£–≤–РвА†¬ђ—Т–≤–РвА†–≤–Р–£вАУ“Р¬ђ—Т–≤–РвА†–≤–Р–£–≤–РвА†–≤–Р–£вАУ–Ѓ–≤–Р–£–≤–Щ¬І–≤–Р–£вАУ–Ґ–≤–Р–£–≤–РвА†¬ђ—Т–≤–РвА†–≤–Р–£вАУ“Р¬ђ—Т–≤–РвА†–≤–Р–£–≤–РвА†¬ђ—Т–≤–РвА†–≤–Р–£–≤–Щ¬І–≤–Р–£вАУ–Ґ¬ђ—Т¬ђ“С–≤–Р–£–≤–РвА†¬ђ—Т–≤–РвА†–≤–Р–£вАУ“Р¬ђ—Т–≤–РвА†–≤–Р–£–≤–РвА†–≤–Р–£вАУ–Ѓ–≤–Р–£–≤–Щ¬І–≤–Р–£вАУ–ҐвАУвЙ§вАУ–†вАУ—Т–≤–Р–£–≤–РвА†¬ђ—Т–≤–РвА†–≤–Р–£–≤–РвА†–≤–Р–£вАУ–Ђ–≤–Р–£–≤–РвА†¬ђ—Т–≤–РвА†–≤–Р–£–≤–Щ¬І–≤–Р–£вАУ–Ґ–≤–Р–§вАУ¬©–≤–Р–£–≤–РвА†¬ђ—Т–≤–РвА†–≤–Р–£вАУ“Р¬ђ—Т–≤–РвА†–≤–Р–£–≤–РвА†–≤–Р–£вАУ–Ѓ–≤–Р–£–≤–Щ¬І–≤–Р–£вАУ–Ґ–≤–Р–£–≤–РвА†¬ђ—Т–≤–РвА†–≤–Р–£вАУ“Р¬ђ—Т–≤–РвА†–≤–Р–£–≤–РвА†вАУвЙ§вАУ–†вАУ¬©–≤–Р–£вАУ“Р¬ђ—Т–≤–Ш–Ѓ 1 –≤–Р–£–≤–РвА†¬ђ—Т–≤–РвА†–≤–Р–£вАУ“Р¬ђ—Т–≤–РвА†–≤–Р–£–≤–РвА†–≤–Р–£вАУ–Ѓ–≤–Р–£–≤–Щ¬І–≤–Р–£вАУ–Ґ 2.svg" xmlns:cc="http://creativecommons.org/ns#" xmlns:dc="http://purl.org/dc/elements/1.1/" xmlns:inkscape="http://www.inkscape.org/namespaces/inkscape" xmlns:rdf="http://www.w3.org/1999/02/22-rdf-syntax-ns#" xmlns:sodipodi="http://sodipodi.sourceforge.net/DTD/sodipodi-0.dtd" xmlns:svg="http://www.w3.org/2000/svg">
	
		<sodipodi:namedview  bordercolor="#666666" borderopacity="1" gridtolerance="10" guidetolerance="10" id="namedview3695" inkscape:current-layer="svg3693" inkscape:cx="916.8372" inkscape:cy="546.445" inkscape:pageopacity="0" inkscape:pageshadow="2" inkscape:window-height="657" inkscape:window-maximized="1" inkscape:window-width="1280" inkscape:window-x="-8" inkscape:window-y="-8" inkscape:zoom="0.56514753" objecttolerance="10" pagecolor="#ffffff" showgrid="false">
		</sodipodi:namedview>
	
		<path id="path3703" inkscape:connector-curvature="0" sodipodi:nodetypes="ccccccccccccccccccccccccccccccccccccccccccccccccccccccccc" class="st0" d="
		M401.5,398.7V427h-9.9v-21L264,405.6l0.4,24.4l36.5,0.4v-8.8l10.2,0.4v8.8l32.3-0.4l59.6,52.2l0.4,112.3H496l0,0h173.3l0,0H779V510
		h41.6l0.2-50.7h50.1v135.5h136l-0.4-135.6h93.1l-0.4,135.7l274.6-0.4l0.4-135.3l87,0.1l-0.4,44.2l91.9-0.4l0.8-108.6h-92.7v17.9
		h7.2v7.2h-44.8l0.4-104l125.7-0.4v-31.6l-173.2-0.4l-0.8,45.7l-185,0.4v90.3L1095,420l-0.4-86.1h-41.8v85.7L665.3,420v-87.6
		l-133.9,0.8l0.3,92.7l-91.1,0.3l0.5-111.1l-39.6-0.3V398.7z"/>
	<path id="path4475" inkscape:connector-curvature="0" class="st1" d="M577.9,422.5v-87.2V422.5z"/>
	<path id="path4481" inkscape:connector-curvature="0" sodipodi:nodetypes="cc" class="st1" d="M398.7,425.9h13"/>
	<path id="path4481-1" inkscape:connector-curvature="0" sodipodi:nodetypes="cc" class="st1" d="M431.8,425.9
		c15.4,0.1,4.5,0.1,11.4,0"/>
	<path id="path4501" inkscape:connector-curvature="0" class="st2" d="M403.4,394.7l15.9-0.3"/>
	<path id="path4501-7" inkscape:connector-curvature="0" class="st2" d="M403.4,391.4l15.9-0.3"/>
	<path id="path4501-4" inkscape:connector-curvature="0" class="st2" d="M403.1,388l15.9-0.3"/>
	<path id="path4501-0" inkscape:connector-curvature="0" class="st2" d="M402.9,384.7l15.9-0.3"/>
	<path id="path4501-23" inkscape:connector-curvature="0" class="st2" d="M403.4,397.8l15.9-0.3"/>
	<path id="path4501-00" inkscape:connector-curvature="0" class="st2" d="M403.3,378.5l15.9-0.3"/>
	<path id="path4501-7-6" inkscape:connector-curvature="0" class="st2" d="M403.3,375.2l15.9-0.3"/>
	<path id="path4501-4-1" inkscape:connector-curvature="0" class="st2" d="M403,371.8l15.9-0.3"/>
	<path id="path4501-0-3" inkscape:connector-curvature="0" class="st2" d="M402.8,368.5l15.9-0.3"/>
	<path id="path4501-23-8" inkscape:connector-curvature="0" class="st2" d="M403.3,381.5l15.9-0.3"/>
	<path id="path4501-5" inkscape:connector-curvature="0" class="st2" d="M403.1,362.2l15.9-0.3"/>
	<path id="path4501-7-4" inkscape:connector-curvature="0" class="st2" d="M403.1,358.9l15.9-0.3"/>
	<path id="path4501-4-12" inkscape:connector-curvature="0" class="st2" d="M402.8,355.5l15.9-0.3"/>
	<path id="path4501-0-0" inkscape:connector-curvature="0" class="st2" d="M402.5,352.2l15.9-0.3"/>
	<path id="path4501-23-0" inkscape:connector-curvature="0" class="st2" d="M403.1,365.3L419,365"/>
	<path id="path4501-2" inkscape:connector-curvature="0" class="st2" d="M403.3,345.9l15.9-0.3"/>
	<path id="path4501-7-5" inkscape:connector-curvature="0" class="st2" d="M403.3,342.6l15.9-0.3"/>
	<path id="path4501-4-0" inkscape:connector-curvature="0" class="st2" d="M403,339.2l15.9-0.3"/>
	<path id="path4501-0-9" inkscape:connector-curvature="0" class="st2" d="M402.8,335.9l15.9-0.3l0.7,62.4"/>
	<path id="path4501-23-4" inkscape:connector-curvature="0" class="st2" d="M403.3,349l15.9-0.3"/>
	<path id="path5069" inkscape:connector-curvature="0" class="st2" d="M418.7,335.6h20"/>
	<path id="path4501-3" inkscape:connector-curvature="0" class="st2" d="M422.6,394.6l16.7-0.3"/>
	<path id="path4501-7-8" inkscape:connector-curvature="0" class="st2" d="M422.6,391.3l16.7-0.3"/>
	<path id="path4501-4-08" inkscape:connector-curvature="0" class="st2" d="M422.3,387.9l16.7-0.3"/>
	<path id="path4501-0-8" inkscape:connector-curvature="0" class="st2" d="M422.1,384.6l16.7-0.3"/>
	<path id="path4501-23-06" inkscape:connector-curvature="0" class="st2" d="M422.6,397.7l16.7-0.3"/>
	<path id="path4501-00-8" inkscape:connector-curvature="0" class="st2" d="M422.5,378.3l16.7-0.3"/>
	<path id="path4501-7-6-1" inkscape:connector-curvature="0" class="st2" d="M422.5,375.1l16.7-0.3"/>
	<path id="path4501-4-1-9" inkscape:connector-curvature="0" class="st2" d="M422.2,371.7l16.7-0.3"/>
	<path id="path4501-0-3-8" inkscape:connector-curvature="0" class="st2" d="M422,368.3l16.7-0.3"/>
	<path id="path4501-23-8-9" inkscape:connector-curvature="0" class="st2" d="M422.5,381.4l16.7-0.3"/>
	<path id="path4501-5-7" inkscape:connector-curvature="0" class="st2" d="M422.3,362.1l16.7-0.3"/>
	<path id="path4501-7-4-2" inkscape:connector-curvature="0" class="st2" d="M422.3,358.8l16.7-0.3"/>
	<path id="path4501-4-12-2" inkscape:connector-curvature="0" class="st2" d="M422,355.4l16.7-0.3"/>
	<path id="path4501-0-0-8" inkscape:connector-curvature="0" class="st2" d="M421.7,352.1l16.7-0.3"/>
	<path id="path4501-23-0-2" inkscape:connector-curvature="0" class="st2" d="M422.3,365.1l16.7-0.3"/>
	<path id="path4501-2-8" inkscape:connector-curvature="0" class="st2" d="M422.3,345.8l16.7-0.3"/>
	<path id="path4501-7-5-9" inkscape:connector-curvature="0" sodipodi:nodetypes="ccc" class="st3" d="M421.4,342.5l4.3-0.1
		l13.8-0.1c0-1.3,0.5-2.3,0.5-3.6"/>
	<path id="path4501-23-4-0" inkscape:connector-curvature="0" class="st2" d="M422.3,348.9l16.7-0.3"/>
	<path id="path5263" inkscape:connector-curvature="0" class="st2" d="M421.8,335.6l0.2,62.7"/>
	<path id="path5316" inkscape:connector-curvature="0" sodipodi:nodetypes="cc" class="st1" d="M402.5,498.8l19,0.2"/>
	<path id="path5318" inkscape:connector-curvature="0" class="st1" d="M435.8,499.2H496v9.3h-9.7l-0.1,9.7l9.8,0.1l-0.1,76.2"/>
	<path id="path5360" inkscape:connector-curvature="0" class="st2" d="M436.3,498.3l-0.3-35.1l56.6-0.2v17.2h-8.1l-0.2-10l-40.1,0.2
		v27.5"/>
	<path id="path5362" inkscape:connector-curvature="0" class="st2" d="M436.4,493.2l5.6,5.1"/>
	<path id="path5364" inkscape:connector-curvature="0" class="st2" d="M436.5,487.7l7.6,7.5"/>
	<path id="path5368" inkscape:connector-curvature="0" class="st2" d="M436.5,481.8l7.4,7.7"/>
	<path id="path5364-1" inkscape:connector-curvature="0" class="st2" d="M436.3,475.8l8,8.3"/>
	<path id="path5368-5" inkscape:connector-curvature="0" class="st2" d="M436.6,470.4l7.4,7.7"/>
	<path id="path5368-5-6" inkscape:connector-curvature="0" class="st2" d="M435.8,463.9l8.4,8.7"/>
	<path id="path5368-5-1" inkscape:connector-curvature="0" class="st2" d="M440.5,463.1l7,7"/>
	<path id="path5368-5-1-4" inkscape:connector-curvature="0" class="st2" d="M445.6,463.4l7,7"/>
	<path id="path5368-5-1-2" inkscape:connector-curvature="0" class="st2" d="M450.9,463.2l7,7"/>
	<path id="path5368-5-1-8" inkscape:connector-curvature="0" class="st2" d="M456.1,463.1l7,7"/>
	<path id="path5368-5-1-4-6" inkscape:connector-curvature="0" class="st2" d="M461.2,463.3l7,7"/>
	<path id="path5368-5-1-2-2" inkscape:connector-curvature="0" class="st2" d="M466.5,463.2l7,7"/>
	<path id="path5368-5-1-6" inkscape:connector-curvature="0" class="st2" d="M472.2,463.2l7,7"/>
	<path id="path5368-5-1-4-5" inkscape:connector-curvature="0" class="st2" d="M477.4,463.5l7,7"/>
	<path id="path5368-5-1-2-3" inkscape:connector-curvature="0" class="st2" d="M482.6,463.3l9.8,9.8"/>
	<path id="path5368-5-1-4-5-9" inkscape:connector-curvature="0" class="st2" d="M487.5,462.9l5.2,5.1"/>
	<path id="path5368-5-1-4-5-2" inkscape:connector-curvature="0" class="st2" d="M484.5,470.3l7.9,7.9"/>
	<path id="path5368-5-1-4-5-4" inkscape:connector-curvature="0" class="st2" d="M484.7,475l4.9,5.2"/>
	<path id="path4501-29" inkscape:connector-curvature="0" class="st2" d="M497.9,551.7l20.8-0.2"/>
	<path id="path4501-7-52" inkscape:connector-curvature="0" class="st2" d="M497.8,547.9l20.9-0.2"/>
	<path id="path4501-4-00" inkscape:connector-curvature="0" class="st2" d="M497.6,544l21.6-0.2"/>
	<path id="path4501-0-39" inkscape:connector-curvature="0" class="st2" d="M497.3,540.2l21.6-0.2"/>
	<path id="path4501-23-1" inkscape:connector-curvature="0" class="st2" d="M497.6,555.3h21.6"/>
	<path id="path4501-00-81" inkscape:connector-curvature="0" class="st2" d="M497.8,533l21.7-0.2"/>
	<path id="path4501-7-6-9" inkscape:connector-curvature="0" class="st2" d="M497.5,529.2l22-0.2"/>
	<path id="path4501-4-1-5" inkscape:connector-curvature="0" class="st2" d="M497.3,525.3l21.8-0.2"/>
	<path id="path4501-0-3-3" inkscape:connector-curvature="0" class="st2" d="M497.1,521.5l21.8-0.2"/>
	<path id="path4501-23-8-2" inkscape:connector-curvature="0" class="st2" d="M497.8,536.5l21.7-0.2"/>
	<path id="path4501-23-0-5" inkscape:connector-curvature="0" class="st2" d="M497.2,517.7l22.6-0.1"/>
	<path id="path5643" inkscape:connector-curvature="0" class="st2" d="M519.3,517.3l-0.2,38.3"/>
	<path id="path5645" inkscape:connector-curvature="0" class="st2" d="M575.6,516.2l10.2,0.2l-0.2-10.5l-10.5,0.4L575.6,516.2z"/>
	<path id="path5368-5-1-4-5-9-5" inkscape:connector-curvature="0" class="st2" d="M580.2,506.1l5.2,5.1"/>
	<path id="path5368-5-1-4-5-9-8" inkscape:connector-curvature="0" class="st2" d="M575.1,511.1l5.2,5.1"/>
	<path id="path5368-5-1-4-5-9-6" inkscape:connector-curvature="0" class="st2" d="M575.6,506.9l9.9,9.1"/>
	
		<path id="path5685" inkscape:flatsided="true" inkscape:randomized="0" inkscape:rounded="0.06" inkscape:transform-center-x="-0.064398733" inkscape:transform-center-y="-1.2171228" sodipodi:arg1="0.50284321" sodipodi:arg2="1.5500408" sodipodi:cx="550.41693" sodipodi:cy="634.91528" sodipodi:r1="10.230863" sodipodi:r2="5.1154318" sodipodi:sides="3" sodipodi:type="star" class="st4" d="
		M515.6,568.2c-0.3,0.5-10.7,0.7-11,0.2s4.6-8.6,5.3-8.6S515.9,567.7,515.6,568.2L515.6,568.2z"/>
	
		<path id="path5685-7" inkscape:flatsided="true" inkscape:randomized="0" inkscape:rounded="0.06" inkscape:transform-center-x="-0.064398733" inkscape:transform-center-y="-1.2171228" sodipodi:arg1="0.50284321" sodipodi:arg2="1.5500408" sodipodi:cx="550.41693" sodipodi:cy="634.91528" sodipodi:r1="10.230863" sodipodi:r2="5.1154318" sodipodi:sides="3" sodipodi:type="star" class="st4" d="
		M516.6,588.8c-0.3,0.5-10.7,0.7-11,0.2s4.6-8.6,5.3-8.6C511.6,580.4,517,588.3,516.6,588.8L516.6,588.8z"/>
	
		<path id="path5685-2" inkscape:flatsided="true" inkscape:randomized="0" inkscape:rounded="0.06" inkscape:transform-center-x="-0.064393055" inkscape:transform-center-y="-1.2785079" sodipodi:arg1="0.50284321" sodipodi:arg2="1.5500408" sodipodi:cx="550.41693" sodipodi:cy="634.91528" sodipodi:r1="10.230863" sodipodi:r2="5.1154318" sodipodi:sides="3" sodipodi:type="star" class="st5" d="
		M532.6,577.3c-0.3,0.5-10.7,0.7-11,0.2s4.6-9,5.3-9C527.6,568.4,532.9,576.7,532.6,577.3L532.6,577.3z"/>
	
		<path id="path5685-9" inkscape:flatsided="true" inkscape:randomized="0" inkscape:rounded="0.06" inkscape:transform-center-x="-0.064398733" inkscape:transform-center-y="-1.2171228" sodipodi:arg1="0.50284321" sodipodi:arg2="1.5500408" sodipodi:cx="550.41693" sodipodi:cy="634.91528" sodipodi:r1="10.230863" sodipodi:r2="5.1154318" sodipodi:sides="3" sodipodi:type="star" class="st4" d="
		M549.8,568.2c-0.3,0.5-10.7,0.7-11,0.2s4.6-8.6,5.3-8.6S550.2,567.7,549.8,568.2L549.8,568.2z"/>
	
		<path id="path5685-7-4" inkscape:flatsided="true" inkscape:randomized="0" inkscape:rounded="0.06" inkscape:transform-center-x="-0.064398733" inkscape:transform-center-y="-1.2171228" sodipodi:arg1="0.50284321" sodipodi:arg2="1.5500408" sodipodi:cx="550.41693" sodipodi:cy="634.91528" sodipodi:r1="10.230863" sodipodi:r2="5.1154318" sodipodi:sides="3" sodipodi:type="star" class="st4" d="
		M550.9,588.7c-0.3,0.5-10.7,0.7-11,0.2s4.6-8.6,5.3-8.6C545.8,580.3,551.2,588.2,550.9,588.7L550.9,588.7z"/>
	
		<path id="path5685-2-1" inkscape:flatsided="true" inkscape:randomized="0" inkscape:rounded="0.06" inkscape:transform-center-x="-0.064393055" inkscape:transform-center-y="-1.2785079" sodipodi:arg1="0.50284321" sodipodi:arg2="1.5500408" sodipodi:cx="550.41693" sodipodi:cy="634.91528" sodipodi:r1="10.230863" sodipodi:r2="5.1154318" sodipodi:sides="3" sodipodi:type="star" class="st5" d="
		M566.8,577.2c-0.3,0.5-10.7,0.7-11,0.2s4.6-9,5.3-9S567.1,576.7,566.8,577.2L566.8,577.2z"/>
	
		<path id="path5685-96" inkscape:flatsided="true" inkscape:randomized="0" inkscape:rounded="0.06" inkscape:transform-center-x="-0.064398733" inkscape:transform-center-y="-1.2171228" sodipodi:arg1="0.50284321" sodipodi:arg2="1.5500408" sodipodi:cx="550.41693" sodipodi:cy="634.91528" sodipodi:r1="10.230863" sodipodi:r2="5.1154318" sodipodi:sides="3" sodipodi:type="star" class="st4" d="
		M586.1,568.2c-0.3,0.5-10.7,0.7-11,0.2s4.6-8.6,5.3-8.6S586.4,567.7,586.1,568.2L586.1,568.2z"/>
	
		<path id="path5685-7-9" inkscape:flatsided="true" inkscape:randomized="0" inkscape:rounded="0.06" inkscape:transform-center-x="-0.064398733" inkscape:transform-center-y="-1.2171228" sodipodi:arg1="0.50284321" sodipodi:arg2="1.5500408" sodipodi:cx="550.41693" sodipodi:cy="634.91528" sodipodi:r1="10.230863" sodipodi:r2="5.1154318" sodipodi:sides="3" sodipodi:type="star" class="st4" d="
		M587.1,588.8c-0.3,0.5-10.7,0.7-11,0.2s4.6-8.6,5.3-8.6S587.4,588.2,587.1,588.8L587.1,588.8z"/>
	
		<path id="path5685-2-8" inkscape:flatsided="true" inkscape:randomized="0" inkscape:rounded="0.06" inkscape:transform-center-x="-0.064393055" inkscape:transform-center-y="-1.2785079" sodipodi:arg1="0.50284321" sodipodi:arg2="1.5500408" sodipodi:cx="550.41693" sodipodi:cy="634.91528" sodipodi:r1="10.230863" sodipodi:r2="5.1154318" sodipodi:sides="3" sodipodi:type="star" class="st5" d="
		M603.1,577.2c-0.3,0.5-10.7,0.7-11,0.2s4.6-9,5.3-9S603.4,576.7,603.1,577.2L603.1,577.2z"/>
	
		<path id="path5685-9-2" inkscape:flatsided="true" inkscape:randomized="0" inkscape:rounded="0.06" inkscape:transform-center-x="-0.064398733" inkscape:transform-center-y="-1.2171228" sodipodi:arg1="0.50284321" sodipodi:arg2="1.5500408" sodipodi:cx="550.41693" sodipodi:cy="634.91528" sodipodi:r1="10.230863" sodipodi:r2="5.1154318" sodipodi:sides="3" sodipodi:type="star" class="st4" d="
		M620.3,568.2c-0.3,0.5-10.7,0.7-11,0.2s4.6-8.6,5.3-8.6S620.6,567.7,620.3,568.2L620.3,568.2z"/>
	
		<path id="path5685-7-4-5" inkscape:flatsided="true" inkscape:randomized="0" inkscape:rounded="0.06" inkscape:transform-center-x="-0.064398733" inkscape:transform-center-y="-1.2171228" sodipodi:arg1="0.50284321" sodipodi:arg2="1.5500408" sodipodi:cx="550.41693" sodipodi:cy="634.91528" sodipodi:r1="10.230863" sodipodi:r2="5.1154318" sodipodi:sides="3" sodipodi:type="star" class="st4" d="
		M621.3,588.7c-0.3,0.5-10.7,0.7-11,0.2s4.6-8.6,5.3-8.6S621.6,588.2,621.3,588.7L621.3,588.7z"/>
	
		<path id="path5685-2-1-5" inkscape:flatsided="true" inkscape:randomized="0" inkscape:rounded="0.06" inkscape:transform-center-x="-0.064393055" inkscape:transform-center-y="-1.2785079" sodipodi:arg1="0.50284321" sodipodi:arg2="1.5500408" sodipodi:cx="550.41693" sodipodi:cy="634.91528" sodipodi:r1="10.230863" sodipodi:r2="5.1154318" sodipodi:sides="3" sodipodi:type="star" class="st5" d="
		M637.3,577.2c-0.3,0.5-10.7,0.7-11,0.2s4.6-9,5.3-9C632.2,568.4,637.6,576.6,637.3,577.2L637.3,577.2z"/>
	
		<path id="path5685-9-2-4" inkscape:flatsided="true" inkscape:randomized="0" inkscape:rounded="0.06" inkscape:transform-center-x="-0.064398733" inkscape:transform-center-y="-1.2171228" sodipodi:arg1="0.50284321" sodipodi:arg2="1.5500408" sodipodi:cx="550.41693" sodipodi:cy="634.91528" sodipodi:r1="10.230863" sodipodi:r2="5.1154318" sodipodi:sides="3" sodipodi:type="star" class="st4" d="
		M655.1,566.4c-0.3,0.5-10.7,0.7-11,0.2s4.6-8.6,5.3-8.6C650,558,655.4,565.9,655.1,566.4L655.1,566.4z"/>
	
		<path id="path5685-7-4-5-9" inkscape:flatsided="true" inkscape:randomized="0" inkscape:rounded="0.06" inkscape:transform-center-x="-0.064398733" inkscape:transform-center-y="-1.2171228" sodipodi:arg1="0.50284321" sodipodi:arg2="1.5500408" sodipodi:cx="550.41693" sodipodi:cy="634.91528" sodipodi:r1="10.230863" sodipodi:r2="5.1154318" sodipodi:sides="3" sodipodi:type="star" class="st4" d="
		M656.1,586.9c-0.3,0.5-10.7,0.7-11,0.2s4.6-8.6,5.3-8.6S656.4,586.4,656.1,586.9L656.1,586.9z"/>
	<path id="path5799" inkscape:connector-curvature="0" class="st2" d="M519.2,555.3L665,555"/>
	<path id="path5801" inkscape:connector-curvature="0" class="st1" d="M496,507.8v15.1"/>
	<path id="path5803" inkscape:connector-curvature="0" class="st1" d="M666.9,592.1l-1.3-133.7h49.2"/>
	<path id="path5805_1_" inkscape:connector-curvature="0" sodipodi:nodetypes="ccccc" class="st1" d="M665.8,503.5h13.1v7.4H667"/>
	<path id="path5809" inkscape:connector-curvature="0" class="st1" d="M778,508.5l-0.1-5.7h-49.4l0.2-44.8"/>
	<path id="path5811" inkscape:connector-curvature="0" class="st1" d="M728.5,503.7v6.7l8,0.2v-6.9"/>
	<path id="path5813" inkscape:connector-curvature="0" class="st1" d="M727.2,458.4h74.5"/>
	<path id="path5815" inkscape:connector-curvature="0" class="st1" d="M813.2,458.4h6.3"/>
	<path id="path5645-1" inkscape:connector-curvature="0" class="st2" d="M910.1,510.8l10.2,0.2l-0.2-10.5l-10.5,0.4L910.1,510.8z"/>
	<path id="path5368-5-1-4-5-9-8-2" inkscape:connector-curvature="0" class="st2" d="M909.6,505.8l5.2,5.1"/>
	<path id="path5368-5-1-4-5-9-6-5" inkscape:connector-curvature="0" class="st2" d="M910.1,501.5l9.9,9.1"/>
	<path id="path5368-5-1-4-5-9-8-2-9" inkscape:connector-curvature="0" class="st2" d="M915.2,501.1l5.2,5.1"/>
	<path id="path5897" inkscape:connector-curvature="0" class="st1" d="M873.2,458.4h75.7"/>
	<path id="path5897-3" inkscape:connector-curvature="0" class="st1" d="M961.6,458.4h44.7"/>
	<path id="path5897-9" inkscape:connector-curvature="0" class="st1" d="M1220,458.4h86.3"/>
	<path id="path5897-6" inkscape:connector-curvature="0" class="st1" d="M1143.7,458.4h62.5"/>
	<path id="path5897-7" inkscape:connector-curvature="0" class="st1" d="M1099.6,458.4h29.3"/>
	<path id="path5897-99" inkscape:connector-curvature="0" class="st1" d="M1188.9,459.2v131.1"/>
	<path id="path5897-99-9" inkscape:connector-curvature="0" class="st1" d="M1280.1,459.1v132.1"/>
	<path id="path5897-6-3" inkscape:connector-curvature="0" class="st1" d="M1323,458.4h49.1"/>
	<path id="path5897-6-5" inkscape:connector-curvature="0" class="st1" d="M1307.4,420.8h69.4"/>
	<path id="path5897-6-7" inkscape:connector-curvature="0" class="st1" d="M1191.7,420.8h101.6"/>
	<path id="path5897-6-6" inkscape:connector-curvature="0" class="st1" d="M1375.1,331.9v89.4"/>
	<path id="path5897-6-65" inkscape:connector-curvature="0" class="st1" d="M1457.3,439.7h93.9"/>
	<path id="path6016" inkscape:connector-curvature="0" class="st1" d="M1458,436.4v7.1"/>
	<path class="st2" d="M438.5,338.9c-5.4,0-10.8,0-16.2,0.1"/>
</g>
<g id="Слой_2_1_" class="st6">
</g>
</svg>
